<svg viewBox="0 0 43 40" xmlns="http://www.w3.org/2000/svg">
  <path d="M37.2654 14.793C37.2654 14.793 45.0771 20.3653 41.9525 29.5311C41.9525 29.5311 41.3796 31.1976 39.0361 34.4264L42.4732 37.9677C42.4732 37.9677 43.3065 39.478 41.5879 39.9987H24.9229C24.9229 39.9987 19.611 40.155 14.8198 36.9782C14.8198 36.9782 12.1638 35.2076 9.76825 31.9787L18.6215 32.0308C18.6215 32.0308 24.298 31.9787 29.7662 28.3333C35.2344 24.6878 37.4217 18.6988 37.2654 14.793Z" fill="#60A5FA"/>
  <path d="M34.5053 12.814C32.2659 1.04441 19.3506 0.0549276 19.3506 0.0549276C8.31004 -0.674164 3.31055 6.09597 3.31055 6.09597C-4.24076 15.2617 3.6751 23.6983 3.6751 23.6983C3.6751 23.6983 2.99808 24.6357 0.862884 26.5105C-1.27231 28.3854 1.22743 29.3748 1.22743 29.3748H17.3404C23.4543 28.7499 25.9124 27.3959 25.9124 27.3959C36.328 22.0318 34.5053 12.814 34.5053 12.814Z" fill="#2563EB"/>
</svg>